<?xml version="1.0" standalone="no"?>
<!DOCTYPE svg PUBLIC "-//W3C//DTD SVG 20010904//EN"
 "http://www.w3.org/TR/2001/REC-SVG-20010904/DTD/svg10.dtd">
<svg version="1.0" xmlns="http://www.w3.org/2000/svg"
 width="2083.000000pt" height="2083.000000pt" viewBox="0 0 2083.000000 2083.000000"
 preserveAspectRatio="xMidYMid meet">
<metadata>
Created by potrace 1.14, written by Peter Selinger 2001-2017
</metadata>
<g transform="translate(0.000000,2083.000000) scale(0.100000,-0.100000)"
fill="#000000" stroke="none">
<path d="M1495 20815 c-392 -72 -709 -393 -772 -780 -10 -64 -11 -7278 0
-7447 8 -132 9 -149 27 -313 12 -115 15 -146 36 -295 12 -80 63 -377 69 -400
2 -8 7 -30 10 -47 3 -18 12 -63 21 -100 9 -38 18 -79 21 -93 16 -89 139 -540
180 -660 8 -25 19 -58 23 -75 4 -16 31 -95 59 -175 29 -80 59 -165 67 -190 8
-25 19 -54 24 -65 5 -11 34 -85 66 -165 31 -80 65 -164 75 -187 10 -23 19 -44
19 -47 0 -2 13 -33 29 -68 16 -35 48 -106 71 -158 23 -52 51 -115 62 -140 28
-62 268 -542 305 -610 17 -30 50 -91 73 -135 24 -44 54 -97 67 -117 13 -21 23
-40 23 -43 0 -2 27 -50 60 -106 33 -55 60 -102 60 -104 0 -2 27 -49 60 -103
33 -55 60 -105 60 -111 0 -6 5 -11 10 -11 6 0 10 -4 10 -9 0 -5 73 -134 162
-287 89 -154 178 -308 198 -344 35 -61 86 -151 141 -246 13 -23 61 -106 107
-185 46 -79 87 -151 92 -159 15 -24 100 -171 128 -220 14 -25 50 -88 80 -140
31 -52 65 -112 76 -132 74 -131 373 -647 386 -668 10 -14 31 -50 48 -80 16
-30 87 -154 157 -275 70 -121 139 -240 153 -265 14 -25 62 -108 107 -185 45
-77 92 -160 105 -185 14 -25 30 -52 36 -60 6 -8 26 -42 44 -75 51 -93 331
-570 393 -670 134 -216 362 -558 467 -700 20 -27 74 -102 121 -165 46 -63 91
-124 100 -135 9 -11 80 -99 157 -195 77 -96 152 -188 167 -205 15 -16 44 -50
65 -75 69 -82 80 -94 183 -205 103 -112 395 -405 503 -505 51 -48 142 -129
249 -221 112 -98 337 -274 460 -361 44 -31 85 -61 90 -65 32 -26 287 -190 385
-248 63 -37 126 -75 140 -84 40 -27 461 -241 474 -241 3 0 42 -17 88 -38 46
-21 99 -44 118 -51 19 -8 54 -22 76 -32 86 -38 436 -150 604 -193 175 -45 447
-100 550 -111 30 -4 57 -8 60 -10 3 -2 41 -6 85 -10 44 -4 88 -9 98 -11 118
-22 771 -21 908 1 13 2 51 6 84 10 86 9 347 51 435 71 41 9 84 17 95 19 21 4
84 19 235 59 100 26 364 109 415 131 17 7 80 31 140 55 61 23 143 57 183 76
39 19 75 34 78 34 17 0 404 201 526 273 210 123 215 127 398 250 118 80 366
260 380 276 3 3 23 19 45 36 41 30 269 221 339 285 227 203 526 504 726 730
41 47 77 87 80 90 3 3 39 46 80 95 41 50 77 92 80 95 9 9 154 191 241 305 320
418 679 967 979 1500 29 52 510 885 565 980 138 235 225 388 225 393 0 3 6 13
14 21 7 9 26 41 42 71 15 30 33 62 40 70 6 8 25 40 41 70 16 30 42 74 56 97
15 24 27 45 27 48 0 3 11 23 24 44 13 21 77 130 141 242 206 358 456 790 525
909 64 109 425 735 467 810 11 19 35 60 53 90 41 69 243 428 300 535 194 358
488 996 590 1280 12 33 28 74 35 90 7 17 25 66 40 110 15 44 33 94 40 110 18
43 132 398 151 470 2 6 19 69 39 140 61 218 131 522 169 740 3 17 10 55 16 85
5 30 12 73 15 95 8 67 15 117 20 144 6 38 23 176 30 251 8 76 10 102 21 270 5
69 9 1770 9 3780 l0 3655 -24 89 c-60 228 -206 439 -384 556 -34 22 -66 43
-72 47 -40 30 -172 80 -272 102 -117 27 -306 22 -428 -9 -365 -95 -643 -401
-704 -775 -6 -37 -10 -624 -10 -1519 -1 -803 -3 -1461 -4 -1463 -2 -2 -40 25
-85 59 -130 102 -198 149 -367 260 -530 348 -1133 624 -1805 828 -58 17 -114
34 -125 38 -30 9 -24 7 -255 67 -285 73 -664 150 -940 190 -19 3 -46 7 -60 10
-14 2 -47 7 -75 10 -27 4 -63 8 -80 10 -16 2 -50 7 -75 10 -25 3 -58 7 -75 10
-16 2 -61 7 -98 10 -37 4 -77 8 -88 10 -11 2 -63 7 -117 10 -53 4 -108 8 -122
10 -14 2 -74 7 -135 10 -60 4 -126 8 -145 10 -153 15 -806 19 -3170 19 -2412
0 -2894 -3 -3125 -19 -33 -2 -103 -7 -155 -10 -52 -3 -113 -8 -135 -10 -22 -2
-83 -7 -135 -10 -52 -4 -97 -9 -100 -10 -3 -2 -39 -6 -80 -9 -41 -4 -91 -9
-110 -12 -39 -5 -65 -9 -190 -24 -81 -11 -354 -53 -412 -65 -16 -3 -38 -7 -50
-9 -187 -33 -174 -31 -292 -56 -140 -30 -554 -134 -656 -165 -239 -73 -543
-176 -635 -215 -11 -5 -85 -35 -165 -68 -510 -209 -1007 -490 -1408 -796 -52
-39 -103 -77 -113 -85 -19 -13 -19 14 -20 1445 -1 803 -2 1470 -4 1484 -38
350 -281 666 -605 787 -148 55 -359 75 -505 48z"/>
</g>
</svg>
